<svg xmlns="http://www.w3.org/2000/svg" xmlns:xlink="http://www.w3.org/1999/xlink" width="2000" zoomAndPan="magnify" viewBox="0 0 1500 1499.999933" height="2000" preserveAspectRatio="xMidYMid meet" version="1.0"><defs><g/><clipPath id="6635514dd6"><path d="M 103.054688 428 L 429 428 L 429 803 L 103.054688 803 Z M 103.054688 428 " clip-rule="nonzero"/></clipPath></defs><g clip-path="url(#6635514dd6)"><path fill="#ffffff" d="M 428.5625 665.117188 C 428.5625 664.554688 428.339844 664.007812 427.929688 663.597656 L 373.585938 609.273438 L 415.804688 567.054688 C 416.109375 566.765625 416.300781 566.390625 416.382812 565.980469 L 428.511719 505.695312 C 428.527344 505.644531 428.441406 505.609375 428.441406 505.539062 C 428.527344 504.890625 428.425781 504.242188 427.929688 503.746094 L 353.296875 429.117188 C 352.496094 428.3125 351.078125 428.3125 350.273438 429.117188 L 271.871094 507.554688 L 193.464844 429.117188 C 192.660156 428.3125 191.242188 428.332031 190.441406 429.132812 L 115.808594 503.953125 C 115.570312 504.175781 115.570312 504.480469 115.46875 504.773438 C 115.417969 504.890625 115.246094 504.910156 115.210938 505.027344 L 103.085938 565.484375 C 102.949219 566.183594 103.15625 566.902344 103.667969 567.414062 L 157.824219 621.570312 L 115.792969 663.597656 C 115.570312 663.820312 115.554688 664.144531 115.453125 664.433594 C 115.398438 664.554688 115.230469 664.570312 115.210938 664.707031 L 103.085938 725.164062 C 102.949219 725.863281 103.15625 726.582031 103.667969 727.09375 L 178.300781 801.726562 C 178.402344 801.828125 178.570312 801.8125 178.707031 801.898438 C 178.777344 801.949219 178.726562 802.050781 178.8125 802.101562 C 179.136719 802.273438 179.476562 802.359375 179.820312 802.359375 C 180.023438 802.359375 180.230469 802.324219 180.433594 802.273438 C 180.570312 802.238281 180.570312 802.050781 180.691406 801.980469 C 180.894531 801.878906 181.152344 801.898438 181.320312 801.707031 L 259.660156 723.234375 L 338.167969 801.726562 C 338.269531 801.828125 338.441406 801.8125 338.578125 801.898438 C 338.644531 801.949219 338.59375 802.050781 338.679688 802.101562 C 339.003906 802.273438 339.34375 802.359375 339.6875 802.359375 C 339.890625 802.359375 340.097656 802.324219 340.300781 802.253906 C 340.421875 802.222656 340.421875 802.066406 340.523438 802.015625 C 340.746094 801.914062 341.019531 801.914062 341.191406 801.742188 L 415.820312 727.113281 C 416.128906 726.804688 416.316406 726.429688 416.402344 726.019531 L 428.527344 665.5625 C 428.542969 665.511719 428.457031 665.476562 428.457031 665.410156 C 428.457031 665.304688 428.5625 665.222656 428.5625 665.117188 Z M 412.335938 564.511719 L 370.582031 606.265625 L 349.523438 585.210938 L 422.941406 511.792969 Z M 183.304688 793.699219 L 193.910156 740.824219 L 231.871094 702.859375 L 268.472656 666.261719 L 257.832031 719.035156 Z M 412.335938 724.53125 L 343.136719 793.734375 L 349.796875 760.125 L 353.589844 740.996094 L 422.941406 671.640625 Z M 351.625 736.898438 L 273.371094 658.644531 C 273.371094 658.644531 273.371094 658.644531 273.355469 658.644531 L 273.152344 658.441406 C 272.742188 658.066406 272.210938 657.859375 271.683594 657.859375 C 271.136719 657.859375 270.589844 658.082031 270.179688 658.476562 L 191.925781 736.726562 L 120.320312 665.117188 L 162.347656 623.105469 C 162.347656 623.105469 162.363281 623.105469 162.363281 623.105469 L 198.570312 586.902344 C 199.40625 586.0625 199.40625 584.714844 198.570312 583.878906 L 120.335938 505.457031 L 191.945312 433.660156 L 270.367188 512.097656 C 271.167969 512.902344 272.585938 512.902344 273.390625 512.097656 L 351.8125 433.660156 L 423.421875 505.269531 L 398.640625 530.066406 L 345.015625 583.691406 C 344.589844 584.101562 344.367188 584.664062 344.367188 585.210938 C 344.367188 585.757812 344.570312 586.304688 345 586.714844 L 369.078125 610.792969 C 369.078125 610.808594 369.078125 610.808594 369.078125 610.808594 L 423.402344 665.117188 Z M 351.625 736.898438 " fill-opacity="1" fill-rule="nonzero"/></g><path fill="#993dcb" d="M 344.367188 585.210938 C 344.367188 584.664062 344.570312 584.117188 345 583.691406 L 398.625 530.066406 L 423.402344 505.269531 L 351.796875 433.660156 L 273.390625 512.097656 C 272.585938 512.902344 271.167969 512.902344 270.367188 512.097656 L 191.945312 433.660156 L 120.335938 505.457031 L 198.585938 583.878906 C 199.425781 584.714844 199.425781 586.0625 198.585938 586.902344 L 162.382812 623.105469 C 162.382812 623.105469 162.363281 623.105469 162.363281 623.105469 L 120.335938 665.117188 L 191.945312 736.726562 L 270.195312 658.476562 C 270.605469 658.082031 271.152344 657.859375 271.699219 657.859375 C 272.226562 657.859375 272.757812 658.066406 273.167969 658.441406 L 273.371094 658.644531 C 273.371094 658.644531 273.371094 658.644531 273.390625 658.644531 L 351.640625 736.898438 L 423.421875 665.117188 L 369.09375 610.808594 C 369.09375 610.808594 369.09375 610.808594 369.09375 610.792969 L 345.015625 586.714844 C 344.589844 586.304688 344.367188 585.757812 344.367188 585.210938 Z M 344.367188 585.210938 " fill-opacity="1" fill-rule="nonzero"/><g fill="#ffffff" fill-opacity="1"><g transform="translate(513.484271, 578.205338)"><g><path d="M 55.265625 -115.5625 L 86.765625 -115.5625 L 86.765625 -22.3125 C 86.765625 -7.4375 77.941406 0 60.296875 0 L 33.65625 0 C 16.019531 0 7.203125 -7.4375 7.203125 -22.3125 L 7.203125 -115.5625 L 38.703125 -115.5625 L 38.703125 -26.453125 C 38.703125 -23.816406 40.203125 -22.5 43.203125 -22.5 L 50.765625 -22.5 C 53.765625 -22.5 55.265625 -23.816406 55.265625 -26.453125 Z M 55.265625 -115.5625 "/></g></g></g><g fill="#ffffff" fill-opacity="1"><g transform="translate(625.804257, 578.205338)"><g><path d="M 59.9375 -115.5625 L 88.734375 -115.5625 L 88.734375 0 L 61.734375 0 L 36 -60.65625 L 36 0 L 7.203125 0 L 7.203125 -115.5625 L 34.203125 -115.5625 L 59.9375 -53.8125 Z M 59.9375 -115.5625 "/></g></g></g><g fill="#ffffff" fill-opacity="1"><g transform="translate(740.104232, 578.205338)"><g><path d="M 38.703125 -22.5 L 74.515625 -22.5 L 74.515625 0 L 7.203125 0 L 7.203125 -115.5625 L 38.703125 -115.5625 Z M 38.703125 -22.5 "/></g></g></g><g fill="#ffffff" fill-opacity="1"><g transform="translate(832.984244, 578.205338)"><g><path d="M 33.125 -115.5625 L 59.765625 -115.5625 C 77.398438 -115.5625 86.21875 -108.117188 86.21875 -93.234375 L 86.21875 -22.3125 C 86.21875 -7.4375 77.398438 0 59.765625 0 L 33.125 0 C 15.476562 0 6.65625 -7.4375 6.65625 -22.3125 L 6.65625 -93.234375 C 6.65625 -108.117188 15.476562 -115.5625 33.125 -115.5625 Z M 54.71875 -26.453125 L 54.71875 -89.09375 C 54.71875 -91.738281 53.21875 -93.0625 50.21875 -93.0625 L 42.65625 -93.0625 C 39.65625 -93.0625 38.15625 -91.738281 38.15625 -89.09375 L 38.15625 -26.453125 C 38.15625 -23.816406 39.65625 -22.5 42.65625 -22.5 L 50.21875 -22.5 C 53.21875 -22.5 54.71875 -23.816406 54.71875 -26.453125 Z M 54.71875 -26.453125 "/></g></g></g><g fill="#ffffff" fill-opacity="1"><g transform="translate(944.22424, 578.205338)"><g><path d="M 84.59375 -72.359375 L 53.09375 -72.359375 L 53.09375 -90.90625 C 53.09375 -93.539062 51.59375 -94.859375 48.59375 -94.859375 L 42.296875 -94.859375 C 39.296875 -94.859375 37.796875 -93.539062 37.796875 -90.90625 L 37.796875 -24.65625 C 37.796875 -22.019531 39.296875 -20.703125 42.296875 -20.703125 L 48.59375 -20.703125 C 51.59375 -20.703125 53.09375 -22.019531 53.09375 -24.65625 L 53.09375 -42.484375 L 84.59375 -42.484375 L 84.59375 -22.3125 C 84.59375 -7.4375 75.773438 0 58.140625 0 L 32.765625 0 C 15.117188 0 6.296875 -7.4375 6.296875 -22.3125 L 6.296875 -93.234375 C 6.296875 -108.117188 15.117188 -115.5625 32.765625 -115.5625 L 58.140625 -115.5625 C 75.773438 -115.5625 84.59375 -108.117188 84.59375 -93.234375 Z M 84.59375 -72.359375 "/></g></g></g><g fill="#ffffff" fill-opacity="1"><g transform="translate(1051.684207, 578.205338)"><g><path d="M 71.640625 -59.046875 L 94.3125 0 L 60.484375 0 L 38.875 -59.046875 L 60.296875 -115.5625 L 94.140625 -115.5625 Z M 7.203125 0 L 7.203125 -115.5625 L 38.703125 -115.5625 L 38.703125 0 Z M 7.203125 0 "/></g></g></g><g fill="#ffffff" fill-opacity="1"><g transform="translate(1165.444237, 578.205338)"><g><path d="M 38.703125 -22.5 L 78.125 -22.5 L 78.125 0 L 7.203125 0 L 7.203125 -115.5625 L 76.5 -115.5625 L 76.5 -93.0625 L 38.703125 -93.0625 L 38.703125 -69.484375 L 71.28125 -69.484375 L 71.28125 -46.984375 L 38.703125 -46.984375 Z M 38.703125 -22.5 "/></g></g></g><g fill="#ffffff" fill-opacity="1"><g transform="translate(1264.624221, 578.205338)"><g><path d="M 9 -115.5625 L 62.09375 -115.5625 C 79.738281 -115.5625 88.5625 -108.117188 88.5625 -93.234375 L 88.5625 -22.3125 C 88.5625 -7.4375 79.738281 0 62.09375 0 L 9 0 Z M 57.0625 -24.65625 L 57.0625 -90.90625 C 57.0625 -93.539062 55.5625 -94.859375 52.5625 -94.859375 L 40.5 -94.859375 L 40.5 -20.703125 L 52.5625 -20.703125 C 55.5625 -20.703125 57.0625 -22.019531 57.0625 -24.65625 Z M 57.0625 -24.65625 "/></g></g></g><g fill="#ffffff" fill-opacity="1"><g transform="translate(762.777218, 739.852644)"><g><path d="M 61.203125 -79.734375 L 44.8125 -79.734375 L 44.8125 -94.6875 C 44.8125 -96.84375 44.453125 -98.25 43.734375 -98.90625 C 43.015625 -99.570312 41.578125 -99.90625 39.421875 -99.90625 L 30.234375 -99.90625 C 28.078125 -99.90625 26.640625 -99.570312 25.921875 -98.90625 C 25.203125 -98.25 24.84375 -96.84375 24.84375 -94.6875 L 24.84375 -17.8125 C 24.84375 -15.65625 25.203125 -14.242188 25.921875 -13.578125 C 26.640625 -12.921875 28.078125 -12.59375 30.234375 -12.59375 L 39.421875 -12.59375 C 41.578125 -12.59375 43.015625 -12.921875 43.734375 -13.578125 C 44.453125 -14.242188 44.8125 -15.65625 44.8125 -17.8125 L 44.8125 -45.359375 L 35.8125 -45.359375 L 35.8125 -57.953125 L 61.203125 -57.953125 L 61.203125 -15.84375 C 61.203125 -5.15625 55.617188 0.1875 44.453125 0.1875 L 25.203125 0.1875 C 14.035156 0.1875 8.453125 -5.15625 8.453125 -15.84375 L 8.453125 -96.84375 C 8.453125 -107.40625 14.035156 -112.6875 25.203125 -112.6875 L 44.453125 -112.6875 C 55.617188 -112.6875 61.203125 -107.40625 61.203125 -96.84375 Z M 61.203125 -79.734375 "/></g></g></g><g fill="#ffffff" fill-opacity="1"><g transform="translate(849.897214, 739.852644)"><g><path d="M 50.765625 0 L 46.265625 -26.09375 L 22.5 -26.09375 L 18.359375 0 L 2.15625 0 L 22.140625 -112.6875 L 45.71875 -112.6875 L 67.140625 0 Z M 24.484375 -39.234375 L 44.09375 -39.234375 L 33.84375 -98.640625 Z M 24.484375 -39.234375 "/></g></g></g><g fill="#ffffff" fill-opacity="1"><g transform="translate(937.55721, 739.852644)"><g><path d="M 23.578125 0 L 9.359375 0 L 9.359375 -112.6875 L 27.1875 -112.6875 L 46.4375 -42.84375 L 65.703125 -112.6875 L 83.515625 -112.6875 L 83.515625 0 L 69.296875 0 L 69.296875 -82.4375 L 53.8125 -24.484375 L 39.0625 -24.484375 L 23.578125 -82.265625 Z M 23.578125 0 "/></g></g></g><g fill="#ffffff" fill-opacity="1"><g transform="translate(1048.797206, 739.852644)"><g><path d="M 25.734375 -13.140625 L 58.3125 -13.140625 L 58.3125 0 L 9.359375 0 L 9.359375 -112.6875 L 57.0625 -112.6875 L 57.0625 -99.546875 L 25.734375 -99.546875 L 25.734375 -64.796875 L 51.65625 -64.796875 L 51.65625 -51.65625 L 25.734375 -51.65625 Z M 25.734375 -13.140625 "/></g></g></g><g fill="#ffffff" fill-opacity="1"><g transform="translate(1363.347572, 468.205332)"><g><path d="M 15.25 -31.296875 L 15.25 -27.65625 L 10 -27.65625 L 10 0 L 5.5 0 L 5.5 -27.65625 L 0.25 -27.65625 L 0.25 -31.296875 Z M 15.25 -31.296875 "/></g></g></g><g fill="#ffffff" fill-opacity="1"><g transform="translate(1378.845171, 468.205332)"><g><path d="M 6.546875 0 L 2.59375 0 L 2.59375 -31.296875 L 7.546875 -31.296875 L 12.90625 -11.90625 L 18.25 -31.296875 L 23.203125 -31.296875 L 23.203125 0 L 19.25 0 L 19.25 -22.90625 L 14.953125 -6.796875 L 10.84375 -6.796875 L 6.546875 -22.84375 Z M 6.546875 0 "/></g></g></g></svg>